<svg width="147" height="147" viewBox="0 0 147 147" fill="none" xmlns="http://www.w3.org/2000/svg">
<rect x="0.5" y="0.5" width="146" height="146" fill="#FBC552" stroke="black"/>
<path d="M69.25 42.5C72.8304 42.5 76.2642 43.9224 78.7959 46.4541C81.3276 48.9858 82.75 52.4196 82.75 56V61.9854C82.7499 63.9038 82.2423 66.2698 81.4102 68.542C80.578 70.814 79.438 72.9464 78.2061 74.4092L76.9424 75.9072C75.8238 77.2325 75.4116 78.776 75.7109 80.2051C76.0104 81.6343 77.0072 82.8822 78.5713 83.6445L98.3818 93.3115C99.3562 93.7868 100.266 94.6693 100.934 95.7354C101.601 96.8015 102 98.0088 102 99.1025V101.507C101.998 102.302 101.681 103.063 101.118 103.624C100.555 104.185 99.7922 104.501 98.9971 104.5H39.5L39.2041 104.485C38.5181 104.417 37.873 104.114 37.3809 103.623C36.8888 103.132 36.5849 102.488 36.5156 101.802L36.5 101.506V99.1025L36.5049 98.8975C36.5511 97.8671 36.9396 96.7436 37.5654 95.7412C38.233 94.6721 39.1426 93.7844 40.1182 93.3076L59.9287 83.6406L59.9277 83.6396C61.4847 82.881 62.4849 81.6373 62.7881 80.209C63.0913 78.7804 62.6838 77.2352 61.5615 75.9043L60.2939 74.4023C59.055 72.9344 57.9153 70.8038 57.085 68.5352C56.2546 66.2664 55.7501 63.9042 55.75 61.9854V56C55.75 52.4196 57.1724 48.9858 59.7041 46.4541C62.2358 43.9224 65.6696 42.5 69.25 42.5ZM102.875 60V69.625H112.5V73.875H102.875V83.5H98.625V73.875H89V69.625H98.625V60H102.875Z" fill="#C61D1D" stroke="black"/>
</svg>
