<svg width="147" height="147" viewBox="0 0 147 147" fill="none" xmlns="http://www.w3.org/2000/svg">
<rect x="0.5" y="0.5" width="146" height="146" fill="#FBC552" stroke="black"/>
<path d="M73.4995 41.9165C90.9333 41.9165 105.083 56.0658 105.083 73.4995C105.083 90.9334 90.9334 105.083 73.4995 105.083C56.0658 105.083 41.9165 90.9333 41.9165 73.4995C41.9167 56.0659 56.0659 41.9167 73.4995 41.9165ZM57.0269 93.7896L57.4702 94.1372C61.8865 97.6048 67.4486 99.6664 73.4995 99.6665C87.7307 99.6665 99.2997 88.3198 99.6577 74.1753L99.6665 73.4995C99.6785 67.6866 97.7304 62.0396 94.1372 57.4702L93.7896 57.0269L57.0269 93.7896ZM73.4995 47.3335C59.0431 47.3337 47.3342 59.0423 47.3335 73.4985C47.3212 79.3119 49.2684 84.96 52.8618 89.5298L53.2104 89.9722L53.6089 89.5747L89.9731 53.2104L89.5298 52.8618C85.1134 49.3941 79.5505 47.3335 73.4995 47.3335Z" fill="#C61D1D" stroke="black"/>
</svg>
