<svg width="147" height="147" viewBox="0 0 147 147" fill="none" xmlns="http://www.w3.org/2000/svg">
<rect x="0.5" y="0.5" width="146" height="146" fill="#FBC552" stroke="black"/>
<path d="M50.75 54.2467C50.75 50.1022 50.75 48.0299 51.5493 46.4461C52.2524 45.0536 53.3742 43.9215 54.754 43.212C56.3233 42.4053 58.3767 42.4053 62.4833 42.4053H83.0167C87.1233 42.4053 89.1767 42.4053 90.746 43.212C92.1258 43.9215 93.2476 45.0536 93.9507 46.4461C94.75 48.0299 94.75 50.1022 94.75 54.2467V103.481C94.75 105.279 94.75 106.179 94.3797 106.671C94.2196 106.885 94.0154 107.061 93.7812 107.188C93.5469 107.314 93.2882 107.388 93.023 107.403C92.4107 107.44 91.67 106.941 90.1887 105.945L72.75 94.2113L55.3113 105.942C53.83 106.941 53.0893 107.44 52.4733 107.403C52.2087 107.387 51.9507 107.313 51.7172 107.187C51.4836 107.06 51.28 106.884 51.1203 106.671C50.75 106.179 50.75 105.279 50.75 103.481V54.2467Z" fill="#C61D1D" stroke="black" stroke-linecap="round" stroke-linejoin="round"/>
</svg>
