<svg width="147" height="147" viewBox="0 0 147 147" fill="none" xmlns="http://www.w3.org/2000/svg">
<rect x="0.5" y="0.5" width="146" height="146" fill="#FBC552" stroke="black"/>
<path d="M87.75 38.5835C93.353 38.5835 97.875 43.1055 97.875 48.7085C97.875 54.3115 93.353 58.8335 87.75 58.8335C85.0874 58.8335 82.6914 57.79 80.8643 56.0981L80.5928 55.8462L80.2734 56.0327L55.3047 70.5894L54.9902 70.772L55.0674 71.1274C55.2421 71.931 55.375 72.7044 55.375 73.5005C55.375 74.2965 55.2421 75.07 55.0674 75.8735L54.9902 76.228L55.3047 76.4116L80.5566 91.1099L80.873 91.2935L81.1436 91.0483C82.9029 89.4582 85.1945 88.4497 87.75 88.4497C93.1758 88.4497 97.5916 92.8657 97.5918 98.2915C97.5918 103.717 93.1759 108.133 87.75 108.133C82.3241 108.133 77.9082 103.717 77.9082 98.2915C77.9082 97.5573 78.0083 96.8176 78.1777 96.106L78.2637 95.7446L77.9443 95.5581L52.7275 80.8247L52.4072 80.6382L52.1357 80.8892C50.3086 82.581 47.9126 83.6255 45.25 83.6255C39.6471 83.6255 35.1252 79.1034 35.125 73.5005C35.125 67.8975 39.647 63.3755 45.25 63.3755C47.9126 63.3755 50.3086 64.419 52.1357 66.1108L52.4072 66.3628L52.7266 66.1763L77.6953 51.6196L78.0098 51.437L77.9326 51.0815C77.7579 50.2779 77.625 49.5046 77.625 48.7085C77.625 43.1055 82.147 38.5835 87.75 38.5835Z" fill="#C61D1D" stroke="black"/>
</svg>
