<svg width="147" height="147" viewBox="0 0 147 147" fill="none" xmlns="http://www.w3.org/2000/svg">
<rect x="0.5" y="0.5" width="146" height="146" fill="#FBC552" stroke="black"/>
<path d="M90.9697 77.9482C92.5441 78.2198 94.0493 78.5858 95.4844 79.0488C97.5198 79.7056 99.4168 80.5068 101.176 81.4521C102.782 82.3454 103.982 83.324 104.799 84.377C105.606 85.4175 106 86.5377 106 87.75V95.5H96V87.75C96 85.6353 95.4105 83.6097 94.2451 81.6807C93.4038 80.288 92.3095 79.0451 90.9697 77.9482ZM68 77.25C70.9852 77.2482 73.9249 77.599 76.8193 78.3027C79.7121 79.006 82.5624 80.0565 85.3701 81.4561V81.457C86.6164 82.1016 87.6154 83.0349 88.3721 84.2666C89.1258 85.4936 89.5017 86.8345 89.5 88.2998V95.5H46.5V88.2998C46.5 86.8325 46.8764 85.4916 47.6299 84.2666C48.3853 83.0386 49.3822 82.1063 50.624 81.46C53.4335 80.0552 56.2851 79.0029 59.1797 78.3027C62.0744 77.6026 65.0145 77.2518 68 77.25ZM68 52.5C70.8913 52.5 73.3539 53.5238 75.415 55.585C77.4762 57.6461 78.5 60.1087 78.5 63C78.5 65.8913 77.4762 68.3539 75.415 70.415C73.3539 72.4762 70.8913 73.5 68 73.5C65.1087 73.5 62.6461 72.4762 60.585 70.415C58.5238 68.3539 57.5 65.8913 57.5 63C57.5 60.1087 58.5238 57.6461 60.585 55.585C62.6461 53.5238 65.1087 52.5 68 52.5ZM84.499 52.5H84.5C87.3913 52.5 89.8539 53.5238 91.915 55.585C93.9762 57.6461 95 60.1087 95 63C95 65.8913 93.9762 68.3539 91.915 70.415C89.8539 72.4762 87.3913 73.5 84.5 73.5C84.0295 73.5 83.4143 73.4468 82.6475 73.335C82.2344 73.2747 81.8642 73.2098 81.5361 73.1436C82.5673 71.8001 83.3806 70.3335 83.9727 68.7432C84.6591 66.8993 85.0018 64.984 85 63C84.9981 61.0166 84.6562 59.1012 83.9736 57.2578C83.3781 55.6495 82.5539 54.1672 81.5039 52.8115C81.8804 52.7123 82.2548 52.6393 82.6289 52.5986C83.2523 52.531 83.876 52.4982 84.499 52.5Z" fill="#C61D1D" stroke="black"/>
</svg>
