<svg width="147" height="147" viewBox="0 0 147 147" fill="none" xmlns="http://www.w3.org/2000/svg">
<rect x="0.5" y="0.5" width="146" height="146" fill="#FBC552" stroke="black"/>
<path d="M52.625 46.5312H96.375C98.5216 46.5312 100.581 47.3835 102.099 48.9014C103.617 50.4192 104.469 52.4784 104.469 54.625V85.875C104.469 88.0216 103.617 90.0808 102.099 91.5986C100.581 93.1165 98.5216 93.9688 96.375 93.9688H61.8779C60.5384 93.9688 59.2729 94.5784 58.4375 95.625L51.1562 104.728C48.9571 107.472 44.5312 105.92 44.5312 102.406V54.625C44.5312 52.4784 45.3835 50.4192 46.9014 48.9014C48.4192 47.3835 50.4784 46.5312 52.625 46.5312Z" fill="#C61D1D" stroke="black"/>
</svg>
