<svg width="147" height="147" viewBox="0 0 147 147" fill="none" xmlns="http://www.w3.org/2000/svg">
<rect x="0.5" y="0.5" width="146" height="146" fill="#FBC552" stroke="black"/>
<g clip-path="url(#clip0_2342_140)">
<path d="M105.542 36.6436C105.936 36.4924 106.364 36.4586 106.776 36.5459C107.137 36.6224 107.472 36.7882 107.75 37.0283L107.865 37.1357C108.163 37.434 108.369 37.8127 108.457 38.2256C108.533 38.5871 108.516 38.9617 108.409 39.3135L108.357 39.4629L81.5708 109.106C81.4166 109.507 81.1476 109.853 80.7974 110.102C80.4469 110.35 80.0303 110.488 79.6011 110.501C79.1719 110.513 78.7485 110.399 78.3843 110.172C78.0655 109.973 77.8046 109.695 77.6255 109.367L77.5532 109.224L66.4946 84.8955L82.729 68.6572L82.7349 68.6504L82.7407 68.6445C83.5388 67.7881 83.9733 66.6548 83.9526 65.4844C83.9319 64.3142 83.4579 63.1978 82.6304 62.3701C81.8026 61.5424 80.6856 61.0675 79.5151 61.0469C78.3449 61.0263 77.2123 61.461 76.356 62.2588L76.3491 62.2646L76.3433 62.2715L60.103 78.5049L35.7769 67.4521L35.7759 67.4512L35.6313 67.3799C35.3022 67.2009 35.0242 66.9394 34.8247 66.6201C34.5967 66.255 34.4816 65.8297 34.4946 65.3994C34.5078 64.9693 34.6484 64.5527 34.8979 64.2021C35.1476 63.8516 35.4957 63.5827 35.8979 63.4297L35.8989 63.4287L105.542 36.6436Z" fill="#C61D1D" stroke="black"/>
</g>
<defs>
<clipPath id="clip0_2342_140">
<rect width="75" height="75" fill="white" transform="translate(34 36)"/>
</clipPath>
</defs>
</svg>
